<svg xmlns="http://www.w3.org/2000/svg" viewBox="0 0 204.46 31.47"><g fill="#DDD"><g><path d="M9.75,22.76a3.71,3.71,0,0,1-.9-2.54A7.66,7.66,0,0,1,9,18.73c.1-.56.21-1.1.33-1.63s.19-.86.24-1c.16-.74.32-1.46.47-2.18a9.55,9.55,0,0,0,.22-1.73c0-1.07-.38-1.61-1.14-1.61a1.81,1.81,0,0,0-1.44.81,6.08,6.08,0,0,0-1,2.09L4.54,23.59H0L3.34,7.84H7.88L7.53,9.48a4.82,4.82,0,0,1,3.68-1.76,3.6,3.6,0,0,1,2.56.88,3.5,3.5,0,0,1,.94,2.68,10.36,10.36,0,0,1-.22,2c-.15.74-.36,1.65-.63,2.72-.17.65-.32,1.29-.46,1.91a7.71,7.71,0,0,0-.2,1.46,1.51,1.51,0,0,0,.28,1,1.21,1.21,0,0,0,1,.35A1.88,1.88,0,0,0,16,20.05,7.69,7.69,0,0,0,17.1,18h1.33c-.78,2.31-1.68,3.85-2.7,4.64a5.07,5.07,0,0,1-3.16,1.18A3.57,3.57,0,0,1,9.75,22.76Z"/><path d="M20.05,30.51a3.07,3.07,0,0,1-1.12-2.44,3.57,3.57,0,0,1,.69-2.27,4.82,4.82,0,0,1,1.8-1.39,25.79,25.79,0,0,1,3-1.07L24.66,22a5,5,0,0,1-3.78,1.76,4,4,0,0,1-3-1.23,5.31,5.31,0,0,1-1.2-3.84,14.4,14.4,0,0,1,.93-4.9A11.22,11.22,0,0,1,20.4,9.47a6.07,6.07,0,0,1,4.39-1.78,3.32,3.32,0,0,1,1.92.44,1.35,1.35,0,0,1,.63,1.16v.07l.32-1.52h4.56L28.38,26.11a6.63,6.63,0,0,1-2.22,4.19,5.79,5.79,0,0,1-3.51,1.17A3.86,3.86,0,0,1,20.05,30.51ZM23,28.08a4.26,4.26,0,0,0,.79-1.87l.38-1.86a8.35,8.35,0,0,0-2.58,1.32,2.44,2.44,0,0,0-.92,2,.94.94,0,0,0,.38.7,1.31,1.31,0,0,0,.88.34A1.42,1.42,0,0,0,23,28.08Zm1.41-8a3.37,3.37,0,0,0,1.05-1.75l1.61-7.62a1.24,1.24,0,0,0-1.29-1.1A2.82,2.82,0,0,0,23.5,11.1a11.81,11.81,0,0,0-1.58,3.53,14.3,14.3,0,0,0-.56,3.64,3,3,0,0,0,.45,2,1.58,1.58,0,0,0,1.12.44A2.35,2.35,0,0,0,24.4,20.11Z"/><path d="M33.39,14.11h6.3l-.54,2.49H32.82Z"/><path d="M35.92,30.51a3.27,3.27,0,0,1-1.08-2.57,3.15,3.15,0,0,1,.75-2.17,5.67,5.67,0,0,1,1.86-1.36,30,30,0,0,1,2.84-1.07L43.78,6.77q.86-3.9,2.84-5.34A7.56,7.56,0,0,1,51.15,0a9.16,9.16,0,0,1,4,.79,2.86,2.86,0,0,1,1.63,2.83,2.42,2.42,0,0,1-.71,1.94,2.6,2.6,0,0,1-1.78.61A2.25,2.25,0,0,1,53,5.78a1.51,1.51,0,0,1-.53-1.31,2,2,0,0,1,.29-1.07.9.9,0,0,1,.78-.47.55.55,0,0,1,.25,0A1.15,1.15,0,0,0,53.25,2,2.17,2.17,0,0,0,52,1.7a2.76,2.76,0,0,0-2.23,1,5.52,5.52,0,0,0-1.11,2.55l-.54,2.58h2.52L50.4,9.1H47.88l-3.59,17a6.87,6.87,0,0,1-2.18,4.16,5.35,5.35,0,0,1-3.37,1.2A4.12,4.12,0,0,1,35.92,30.51Zm3-2.44a4.15,4.15,0,0,0,.77-1.86l.38-1.83a7.59,7.59,0,0,0-2.55,1.28,2.22,2.22,0,0,0-1,1.75,1.07,1.07,0,0,0,.44,1,1.6,1.6,0,0,0,.85.29A1.48,1.48,0,0,0,38.92,28.07Zm11.53-5.23A3.9,3.9,0,0,1,49.52,20a10.62,10.62,0,0,1,.25-2L51.91,7.84h4.54L54.18,18.55a3.73,3.73,0,0,0-.13,1,1.16,1.16,0,0,0,.3.9,1.47,1.47,0,0,0,1,.27A2.44,2.44,0,0,0,57.05,20a4.52,4.52,0,0,0,1.13-2H59.5a8.7,8.7,0,0,1-3,4.61,6.52,6.52,0,0,1-3.62,1.21A3.26,3.26,0,0,1,50.45,22.84Z"/><path d="M60.32,7.84h4.54l-.41,2a12,12,0,0,1,1.94-1.45,3.6,3.6,0,0,1,1.87-.51,2,2,0,0,1,1.59.7,2.5,2.5,0,0,1,.58,1.67,2.36,2.36,0,0,1-.6,1.6,2.07,2.07,0,0,1-1.66.7,1,1,0,0,1-.93-.34,2.56,2.56,0,0,1-.37-1,2.25,2.25,0,0,0-.19-.59.33.33,0,0,0-.34-.19,2.26,2.26,0,0,0-1.12.26,7.94,7.94,0,0,0-1.18.93l-2.52,12H57Z"/><path d="M70.87,22.57a5,5,0,0,1-1.29-3.8A15.79,15.79,0,0,1,70.43,14a11,11,0,0,1,2.78-4.52,6.63,6.63,0,0,1,4.88-1.91q3.47,0,3.46,3a5.6,5.6,0,0,1-1,3.25,7.41,7.41,0,0,1-2.67,2.38,8.59,8.59,0,0,1-3.56,1c0,.46-.07.78-.07.95,0,1.74.66,2.61,2,2.61a4.53,4.53,0,0,0,1.89-.47,7.76,7.76,0,0,0,1.82-1.2q-.84,4.66-5.45,4.66A5,5,0,0,1,70.87,22.57Zm5.91-7.64A5.7,5.7,0,0,0,78.48,13a5.07,5.07,0,0,0,.65-2.47c0-.86-.27-1.29-.79-1.29-.74,0-1.47.67-2.19,2a16.58,16.58,0,0,0-1.62,4.49A4,4,0,0,0,76.78,14.93Z"/><path d="M82.72,14.11H89l-.54,2.49H82.15Z"/><path d="M91.36,22.84A3.9,3.9,0,0,1,90.44,20a10.62,10.62,0,0,1,.25-2L92.83,7.84h4.54L95.1,18.55a4.11,4.11,0,0,0-.1.89c0,.86.32,1.29,1,1.29A1.93,1.93,0,0,0,97.46,20a5.66,5.66,0,0,0,1-2l2.14-10.12h4.54l-2.27,10.71a3.73,3.73,0,0,0-.13,1,1.16,1.16,0,0,0,.3.9,1.47,1.47,0,0,0,1,.27,2,2,0,0,0,1.53-.76,5.5,5.5,0,0,0,1-2h1.33A9.19,9.19,0,0,1,105,22.57a6,6,0,0,1-3.45,1.21A3,3,0,0,1,99.43,23a3.43,3.43,0,0,1-1-2.24,6.36,6.36,0,0,1-2.26,2.36,5,5,0,0,1-2.4.63A3.29,3.29,0,0,1,91.36,22.84Z"/><path d="M115.15,22.76a3.71,3.71,0,0,1-.9-2.54,7.66,7.66,0,0,1,.16-1.49c.1-.56.21-1.1.33-1.63s.19-.86.23-1c.17-.74.33-1.46.48-2.18a9.55,9.55,0,0,0,.22-1.73c0-1.07-.38-1.61-1.14-1.61a1.83,1.83,0,0,0-1.45.81,6.07,6.07,0,0,0-1,2.09l-2.15,10.11H105.4l3.34-15.75h4.53l-.34,1.64a4.79,4.79,0,0,1,3.68-1.76,3.58,3.58,0,0,1,2.55.88,3.5,3.5,0,0,1,1,2.68,11.19,11.19,0,0,1-.22,2c-.15.74-.36,1.65-.63,2.72-.17.65-.32,1.29-.46,1.91a7,7,0,0,0-.2,1.46,1.51,1.51,0,0,0,.28,1,1.2,1.2,0,0,0,1,.35,1.88,1.88,0,0,0,1.51-.68A8,8,0,0,0,122.5,18h1.32c-.77,2.31-1.67,3.85-2.69,4.64A5.1,5.1,0,0,1,118,23.78,3.55,3.55,0,0,1,115.15,22.76Z"/><path d="M123.18,22.84a3.9,3.9,0,0,1-.93-2.84,10.62,10.62,0,0,1,.25-2l2.14-10.12h4.54l-2.27,10.71a4.17,4.17,0,0,0-.12,1,1.16,1.16,0,0,0,.29.9,1.5,1.5,0,0,0,1,.27,2.42,2.42,0,0,0,1.7-.77,4.52,4.52,0,0,0,1.13-2h1.32a8.7,8.7,0,0,1-3,4.61,6.5,6.5,0,0,1-3.62,1.21A3.26,3.26,0,0,1,123.18,22.84ZM126,5.42a2.38,2.38,0,0,1-.73-1.77A2.45,2.45,0,0,1,126,1.87a2.38,2.38,0,0,1,1.76-.74,2.42,2.42,0,0,1,1.78.74,2.42,2.42,0,0,1,.74,1.78,2.35,2.35,0,0,1-.74,1.77,2.44,2.44,0,0,1-1.78.72A2.4,2.4,0,0,1,126,5.42Z"/><path d="M131.65,22.85a3.58,3.58,0,0,1-1-2.78,7.14,7.14,0,0,1,.16-1.52l2.26-10.71h4.54l-2.27,10.71a7.4,7.4,0,0,0-.16,1.14.94.94,0,0,0,1.07,1,3.41,3.41,0,0,0,2.7-1.83,15.88,15.88,0,0,0,2-4.35,15.67,15.67,0,0,0,.76-4.34c-.05.1-.18.18-.41.23a2.48,2.48,0,0,1-.6.08.94.94,0,0,1-.84-.5,2.15,2.15,0,0,1-.3-1.11A1.63,1.63,0,0,1,140,7.69a2,2,0,0,1,1.47-.48A1.64,1.64,0,0,1,143,8a3.74,3.74,0,0,1,.47,2,21.07,21.07,0,0,1-1,6.07,14.31,14.31,0,0,1-3,5.49,6.4,6.4,0,0,1-5,2.27A4.09,4.09,0,0,1,131.65,22.85Z"/><path d="M144.83,22.57a5,5,0,0,1-1.29-3.8,15.79,15.79,0,0,1,.85-4.78,11,11,0,0,1,2.78-4.52,6.63,6.63,0,0,1,4.88-1.91q3.47,0,3.46,3a5.67,5.67,0,0,1-1,3.25,7.53,7.53,0,0,1-2.68,2.38,8.59,8.59,0,0,1-3.56,1q-.06.94-.06,1.26a3,3,0,0,0,.53,2.09,2.33,2.33,0,0,0,1.73.56,5.29,5.29,0,0,0,2.92-.79A14.37,14.37,0,0,0,156.05,18h1.07q-3.5,5.82-8.66,5.82A5.1,5.1,0,0,1,144.83,22.57Zm5.91-7.67a5.82,5.82,0,0,0,1.7-1.92,5,5,0,0,0,.65-2.46c0-.86-.27-1.29-.79-1.29q-1.14,0-2.22,2a15.49,15.49,0,0,0-1.56,4.51A4.15,4.15,0,0,0,150.74,14.9Z"/><path d="M158.19,7.84h4.53l-.4,2a12.4,12.4,0,0,1,1.93-1.45,3.66,3.66,0,0,1,1.88-.51,2,2,0,0,1,1.59.7,2.5,2.5,0,0,1,.58,1.67,2.36,2.36,0,0,1-.6,1.6,2.09,2.09,0,0,1-1.67.7,1.06,1.06,0,0,1-.93-.34,2.57,2.57,0,0,1-.36-1,2.25,2.25,0,0,0-.19-.59.34.34,0,0,0-.34-.19,2.26,2.26,0,0,0-1.12.26,7.46,7.46,0,0,0-1.18.93l-2.52,12h-4.54Z"/><path d="M168.93,23.2a3.8,3.8,0,0,1-1.54-1.51,4,4,0,0,1-.51-1.94,3.36,3.36,0,0,1,.49-1.81,3,3,0,0,1,1.18-1.12,39.6,39.6,0,0,0,2.15-4.46q.9-2.25,1.73-4.86l4.66-.63c.1,2.69.28,5.59.53,8.72.11,1.26.16,2.18.16,2.74a5,5,0,0,1-.12,1.2A13.24,13.24,0,0,0,179.92,18h1.33a18.53,18.53,0,0,1-4.82,3.93,5.52,5.52,0,0,1-2.25,1.44,8.49,8.49,0,0,1-2.7.45A5.12,5.12,0,0,1,168.93,23.2Zm3.5-2.6a2.86,2.86,0,0,0,.78-2.24q0-.95-.18-2.64c-.21-2.4-.35-4-.41-4.82a36.8,36.8,0,0,1-2.56,6,1.19,1.19,0,0,1,.73,1.11,1.62,1.62,0,0,1-.4,1.07,1.24,1.24,0,0,1-1,.47.85.85,0,0,1-.85-.41,2.58,2.58,0,0,0,.46,1.67,1.8,1.8,0,0,0,1.46.53A2.88,2.88,0,0,0,172.43,20.6Z"/><path d="M180.71,22.55a5.31,5.31,0,0,1-1.19-3.84,14.37,14.37,0,0,1,.92-4.9,11.22,11.22,0,0,1,2.78-4.34,6.09,6.09,0,0,1,4.39-1.78,3.32,3.32,0,0,1,1.92.44,1.35,1.35,0,0,1,.63,1.16v.22l.35-1.67H195l-2.26,10.71a3.73,3.73,0,0,0-.13,1c0,.9.43,1.36,1.29,1.36a1.92,1.92,0,0,0,1.53-.82,6.18,6.18,0,0,0,1-2.14h1.33a9.13,9.13,0,0,1-2.89,4.61,5.91,5.91,0,0,1-3.45,1.21,3,3,0,0,1-2.12-.74,3.26,3.26,0,0,1-1-2.16,8.86,8.86,0,0,1-2,2.1,4.5,4.5,0,0,1-2.66.8A4,4,0,0,1,180.71,22.55Zm6.6-2.56a3.88,3.88,0,0,0,1.06-2l1.51-7.12a1.3,1.3,0,0,0-.32-.81,1.17,1.17,0,0,0-1-.39,2.82,2.82,0,0,0-2.27,1.46,11.81,11.81,0,0,0-1.58,3.53,14.3,14.3,0,0,0-.56,3.64,3,3,0,0,0,.45,2,1.58,1.58,0,0,0,1.12.44A2.27,2.27,0,0,0,187.31,20Z"/><path d="M197.11,22.82a4,4,0,0,1-.93-2.88,10.79,10.79,0,0,1,.25-2.05L199.8,2.11l4.66-.63-3.62,17a3.77,3.77,0,0,0-.13.91,1.13,1.13,0,0,0,1.3,1.26,2.44,2.44,0,0,0,1-.19,3.42,3.42,0,0,1-1.12,2.45,3.47,3.47,0,0,1-2.34.86A3.24,3.24,0,0,1,197.11,22.82Z"/></g></g></svg>
