<svg xmlns="http://www.w3.org/2000/svg" viewBox="0 0 204.46 31.47"><defs><style>.cls-1{fill:#e1d5f1;}.cls-2{fill:#fcfbfe;}.cls-3{fill:#cec6e0;}</style></defs><g><g><g><path class="cls-1" d="M27.34,9.36V9.29a1.35,1.35,0,0,0-.63-1.16,3.32,3.32,0,0,0-1.92-.44A6.07,6.07,0,0,0,20.4,9.47a11.22,11.22,0,0,0-2.78,4.34,14.4,14.4,0,0,0-.93,4.9c0,.05,0,.09,0,.14a6,6,0,0,1-.73,1.2,1.88,1.88,0,0,1-1.51.68,1.21,1.21,0,0,1-1-.35,1.51,1.51,0,0,1-.28-1,7.71,7.71,0,0,1,.2-1.46c.14-.62.29-1.26.46-1.91.27-1.07.48-2,.63-2.72a10.36,10.36,0,0,0,.22-2,3.5,3.5,0,0,0-.94-2.68,3.6,3.6,0,0,0-2.56-.88A4.82,4.82,0,0,0,7.53,9.48l.35-1.64H3.34L0,23.59H4.54L6.68,13.48a6.08,6.08,0,0,1,1-2.09,1.81,1.81,0,0,1,1.44-.81c.76,0,1.14.54,1.14,1.61a9.55,9.55,0,0,1-.22,1.73c-.15.72-.31,1.44-.47,2.18-.05.14-.13.48-.24,1S9.11,18.17,9,18.73a7.66,7.66,0,0,0-.16,1.49,3.71,3.71,0,0,0,.9,2.54,3.57,3.57,0,0,0,2.82,1,5.07,5.07,0,0,0,3.16-1.18A5.64,5.64,0,0,0,17,21.07a3.71,3.71,0,0,0,.86,1.48,4,4,0,0,0,3,1.23A5,5,0,0,0,24.66,22l-.28,1.32a25.79,25.79,0,0,0-3,1.07,4.82,4.82,0,0,0-1.8,1.39,3.57,3.57,0,0,0-.69,2.27,3.07,3.07,0,0,0,1.12,2.44,3.86,3.86,0,0,0,2.6,1,5.79,5.79,0,0,0,3.51-1.17,6.63,6.63,0,0,0,2.22-4.19L32.22,7.84H27.66ZM23.78,26.21A4.26,4.26,0,0,1,23,28.08a1.41,1.41,0,0,1-1.07.58,1.3,1.3,0,0,1-.88-.33.94.94,0,0,1-.38-.7,2.44,2.44,0,0,1,.92-2,8.35,8.35,0,0,1,2.58-1.32Zm1.67-7.85a3.37,3.37,0,0,1-1.05,1.75,2.35,2.35,0,0,1-1.47.62,1.58,1.58,0,0,1-1.12-.44,3,3,0,0,1-.45-2,14.3,14.3,0,0,1,.56-3.64A11.81,11.81,0,0,1,23.5,11.1a2.82,2.82,0,0,1,2.27-1.46,1.24,1.24,0,0,1,1.29,1.1Z"/><polygon class="cls-1" points="39.69 14.11 33.39 14.11 32.82 16.6 39.15 16.6 39.69 14.11"/><path class="cls-1" d="M50.65,7.84H48.13l.54-2.58a5.52,5.52,0,0,1,1.11-2.55A2.76,2.76,0,0,1,52,1.7,2.17,2.17,0,0,1,53.25,2a1.15,1.15,0,0,1,.49.94.55.55,0,0,0-.25,0,.9.9,0,0,0-.78.47,2,2,0,0,0-.29,1.07A1.51,1.51,0,0,0,53,5.78a2.25,2.25,0,0,0,1.35.39,2.6,2.6,0,0,0,1.78-.61,2.42,2.42,0,0,0,.71-1.94A2.86,2.86,0,0,0,55.16.79a9.16,9.16,0,0,0-4-.79,7.56,7.56,0,0,0-4.53,1.43q-2,1.44-2.84,5.34L40.29,23.34a30,30,0,0,0-2.84,1.07,5.67,5.67,0,0,0-1.86,1.36,3.15,3.15,0,0,0-.75,2.17,3.27,3.27,0,0,0,1.08,2.57,4.12,4.12,0,0,0,2.82,1,5.35,5.35,0,0,0,3.37-1.2,6.87,6.87,0,0,0,2.18-4.16l3.59-17H50.4Zm-11,18.37a4.15,4.15,0,0,1-.77,1.86,1.47,1.47,0,0,1-1.06.59,1.58,1.58,0,0,1-.85-.28,1.08,1.08,0,0,1-.44-1,2.22,2.22,0,0,1,1-1.74,7.59,7.59,0,0,1,2.55-1.28Z"/><path class="cls-1" d="M70.43,10.21a2.5,2.5,0,0,0-.58-1.67,2,2,0,0,0-1.59-.7,3.6,3.6,0,0,0-1.87.51A12,12,0,0,0,64.45,9.8l.41-2H60.32L58.18,18a4.47,4.47,0,0,1-1.13,2,2.44,2.44,0,0,1-1.71.77,1.47,1.47,0,0,1-1-.27,1.16,1.16,0,0,1-.3-.9,3.68,3.68,0,0,1,.13-1L56.45,7.84H51.91L49.77,18A10.79,10.79,0,0,0,49.52,20a3.9,3.9,0,0,0,.93,2.84,3.26,3.26,0,0,0,2.44.94,6.52,6.52,0,0,0,3.62-1.21,5.46,5.46,0,0,0,.84-.71L57,23.59h4.54l2.52-12a7.94,7.94,0,0,1,1.18-.93,2.26,2.26,0,0,1,1.12-.26.33.33,0,0,1,.34.19,2.25,2.25,0,0,1,.19.59,2.56,2.56,0,0,0,.37,1,1,1,0,0,0,.93.34,2.07,2.07,0,0,0,1.66-.7A2.38,2.38,0,0,0,70.43,10.21Z"/><path class="cls-1" d="M78.09,7.56a6.63,6.63,0,0,0-4.88,1.91A11,11,0,0,0,70.43,14a15.74,15.74,0,0,0-.85,4.78,5,5,0,0,0,1.29,3.8,5,5,0,0,0,3.59,1.21q4.61,0,5.45-4.66a7.76,7.76,0,0,1-1.82,1.2,4.53,4.53,0,0,1-1.89.47c-1.3,0-2-.87-2-2.61,0-.17,0-.49.07-.95a8.59,8.59,0,0,0,3.56-1,7.41,7.41,0,0,0,2.67-2.38,5.6,5.6,0,0,0,1-3.25Q81.55,7.57,78.09,7.56ZM78.48,13a5.7,5.7,0,0,1-1.7,1.94,4,4,0,0,1-2.25.79,16.58,16.58,0,0,1,1.62-4.49c.72-1.33,1.45-2,2.19-2,.52,0,.79.43.79,1.29A5.07,5.07,0,0,1,78.48,13Z"/><polygon class="cls-1" points="82.15 16.6 88.48 16.6 89.02 14.11 82.72 14.11 82.15 16.6"/><path class="cls-1" d="M127.76,6.14a2.46,2.46,0,0,0,1.78-.72,2.39,2.39,0,0,0,.74-1.77,2.46,2.46,0,0,0-.74-1.78,2.44,2.44,0,0,0-1.78-.74,2.38,2.38,0,0,0-1.76.74,2.45,2.45,0,0,0-.73,1.78,2.48,2.48,0,0,0,2.49,2.49Z"/><path class="cls-1" d="M141.5,7.21a2,2,0,0,0-1.47.48,1.6,1.6,0,0,0-.49,1.22,2.15,2.15,0,0,0,.3,1.11.94.94,0,0,0,.84.5,2.92,2.92,0,0,0,.59-.08c.24,0,.37-.13.42-.23a15.67,15.67,0,0,1-.76,4.34,15.88,15.88,0,0,1-2,4.35,3.41,3.41,0,0,1-2.7,1.83.94.94,0,0,1-1.07-1,7.4,7.4,0,0,1,.16-1.14l2.27-10.71h-4.54L130.91,18h0a4.5,4.5,0,0,1-1.13,2,2.42,2.42,0,0,1-1.7.77,1.48,1.48,0,0,1-1-.27,1.2,1.2,0,0,1-.29-.9,4.11,4.11,0,0,1,.12-1l2.27-10.71h-4.54L122.5,18a7.89,7.89,0,0,1-1.13,2.1,1.88,1.88,0,0,1-1.51.68,1.2,1.2,0,0,1-1-.35,1.51,1.51,0,0,1-.28-1,7,7,0,0,1,.2-1.46c.14-.62.29-1.26.46-1.91.27-1.07.48-2,.63-2.72a11.19,11.19,0,0,0,.22-2,3.5,3.5,0,0,0-1-2.68,3.58,3.58,0,0,0-2.55-.88,4.8,4.8,0,0,0-3.68,1.76l.34-1.64h-4.53L106.59,18a5.45,5.45,0,0,1-1,2,2,2,0,0,1-1.53.76,1.47,1.47,0,0,1-1-.27,1.16,1.16,0,0,1-.3-.9,3.68,3.68,0,0,1,.13-1l2.27-10.71h-4.54L98.47,18a5.48,5.48,0,0,1-1,2,1.93,1.93,0,0,1-1.51.74c-.63,0-1-.43-1-1.29a4.11,4.11,0,0,1,.1-.89L97.37,7.84H92.83L90.69,18A10.79,10.79,0,0,0,90.44,20a3.9,3.9,0,0,0,.92,2.84,3.29,3.29,0,0,0,2.45.94,5.1,5.1,0,0,0,2.41-.63,6.5,6.5,0,0,0,2.25-2.36,3.43,3.43,0,0,0,1,2.24,3,3,0,0,0,2.16.75A6,6,0,0,0,105,22.57a5.1,5.1,0,0,0,.71-.63l-.35,1.65h4.53l2.15-10.11a6.07,6.07,0,0,1,1-2.09,1.83,1.83,0,0,1,1.45-.81c.76,0,1.14.54,1.14,1.61a9.55,9.55,0,0,1-.22,1.73c-.15.72-.31,1.44-.48,2.18,0,.14-.12.48-.23,1s-.23,1.07-.33,1.63a7.66,7.66,0,0,0-.16,1.49,3.71,3.71,0,0,0,.9,2.54,3.56,3.56,0,0,0,2.82,1,5.09,5.09,0,0,0,3.16-1.18,5.47,5.47,0,0,0,1.24-1.44,3,3,0,0,0,3.25,2.62,6.5,6.5,0,0,0,3.62-1.21,5.76,5.76,0,0,0,1.48-1.51,3.19,3.19,0,0,0,.93,1.79,4.08,4.08,0,0,0,2.85.93,6.4,6.4,0,0,0,5-2.27,14.44,14.44,0,0,0,3-5.49,21.07,21.07,0,0,0,1-6.07A3.8,3.8,0,0,0,143,8,1.65,1.65,0,0,0,141.5,7.21Z"/><path class="cls-1" d="M168.3,10.21a2.5,2.5,0,0,0-.58-1.67,2,2,0,0,0-1.59-.7,3.64,3.64,0,0,0-1.88.51,12.4,12.4,0,0,0-1.93,1.45l.41-2h-4.54L156,18a14.35,14.35,0,0,1-2.65,2.39,5.29,5.29,0,0,1-2.92.79,2.33,2.33,0,0,1-1.73-.56,3,3,0,0,1-.53-2.09q0-.31.06-1.26a8.59,8.59,0,0,0,3.56-1,7.53,7.53,0,0,0,2.68-2.38,5.67,5.67,0,0,0,1-3.25q0-3-3.46-3a6.63,6.63,0,0,0-4.88,1.91A11,11,0,0,0,144.39,14a15.74,15.74,0,0,0-.85,4.78,5,5,0,0,0,1.29,3.8,5.1,5.1,0,0,0,3.63,1.21,9.07,9.07,0,0,0,7.13-3.68l-.74,3.49h4.54l2.52-12a7.46,7.46,0,0,1,1.18-.93,2.26,2.26,0,0,1,1.12-.26.34.34,0,0,1,.34.19,2.25,2.25,0,0,1,.19.59,2.57,2.57,0,0,0,.36,1,1.06,1.06,0,0,0,.93.34,2.09,2.09,0,0,0,1.67-.7A2.38,2.38,0,0,0,168.3,10.21Zm-18.22,1q1.08-2,2.22-2c.52,0,.79.43.79,1.29a5,5,0,0,1-.65,2.46,5.82,5.82,0,0,1-1.7,1.92,4.15,4.15,0,0,1-2.22.82A15.21,15.21,0,0,1,150.08,11.21Z"/><path class="cls-1" d="M200.71,19.4a3.77,3.77,0,0,1,.13-.91l3.62-17-4.66.63-3.37,15.78c0,.21-.08.41-.11.59a5.74,5.74,0,0,1-.85,1.62,1.92,1.92,0,0,1-1.53.82c-.86,0-1.29-.46-1.29-1.36a3.68,3.68,0,0,1,.13-1L195,7.84h-4.53l-.35,1.67V9.29a1.35,1.35,0,0,0-.63-1.16,3.32,3.32,0,0,0-1.92-.44,6.07,6.07,0,0,0-4.39,1.78,11.22,11.22,0,0,0-2.78,4.34,14.74,14.74,0,0,0-.9,4.47,15.66,15.66,0,0,1-1.88,1.25,5,5,0,0,0,.12-1.2c0-.56-.05-1.48-.16-2.74-.25-3.13-.43-6-.53-8.72l-4.66.63q-.83,2.61-1.74,4.86a37.86,37.86,0,0,1-2.14,4.46,3,3,0,0,0-1.18,1.12,3.36,3.36,0,0,0-.49,1.81,4,4,0,0,0,.51,1.94,3.8,3.8,0,0,0,1.54,1.51,5.12,5.12,0,0,0,2.55.58,8.45,8.45,0,0,0,2.7-.45,5.52,5.52,0,0,0,2.25-1.44,19,19,0,0,0,3.14-2.26,4.68,4.68,0,0,0,1.14,2.92,4,4,0,0,0,3,1.23,4.51,4.51,0,0,0,2.67-.8,8.86,8.86,0,0,0,2-2.1,3.26,3.26,0,0,0,1,2.16,3,3,0,0,0,2.12.74,5.91,5.91,0,0,0,3.45-1.21,5.64,5.64,0,0,0,1.37-1.45,3.3,3.3,0,0,0,.81,1.7,3.24,3.24,0,0,0,2.44,1,3.51,3.51,0,0,0,2.35-.86A3.47,3.47,0,0,0,203,20.47a2.44,2.44,0,0,1-1,.19A1.13,1.13,0,0,1,200.71,19.4Zm-28.28,1.2a2.88,2.88,0,0,1-2,.69,1.8,1.8,0,0,1-1.46-.53,2.52,2.52,0,0,1-.46-1.67.85.85,0,0,0,.85.41,1.27,1.27,0,0,0,1-.47,1.67,1.67,0,0,0,.39-1.08,1.18,1.18,0,0,0-.73-1.1,36.8,36.8,0,0,0,2.56-6c.06.82.2,2.42.41,4.82q.18,1.7.18,2.64A2.86,2.86,0,0,1,172.43,20.6ZM188.37,18a3.88,3.88,0,0,1-1.06,2,2.27,2.27,0,0,1-1.56.74,1.58,1.58,0,0,1-1.12-.44,3,3,0,0,1-.45-2,14.3,14.3,0,0,1,.56-3.64,11.81,11.81,0,0,1,1.58-3.53,2.82,2.82,0,0,1,2.27-1.46,1.17,1.17,0,0,1,1,.39,1.3,1.3,0,0,1,.32.81Z"/></g><g id="top"><path class="cls-2" d="M14.71,11.28a3.5,3.5,0,0,0-.94-2.68,3.6,3.6,0,0,0-2.56-.88A4.82,4.82,0,0,0,7.53,9.48l.35-1.64H3.34L1.72,15.5H6.25l.43-2a6.08,6.08,0,0,1,1-2.09,1.81,1.81,0,0,1,1.44-.81c.76,0,1.14.54,1.14,1.61a9.55,9.55,0,0,1-.22,1.73c-.11.52-.23,1.05-.34,1.58H14c.21-.84.38-1.57.5-2.19A10.36,10.36,0,0,0,14.71,11.28Z"/><path class="cls-2" d="M27.66,7.84l-.32,1.52V9.29a1.35,1.35,0,0,0-.63-1.16,3.32,3.32,0,0,0-1.92-.44A6.07,6.07,0,0,0,20.4,9.47a11.22,11.22,0,0,0-2.78,4.34c-.2.57-.36,1.13-.5,1.69h4.59q.09-.42.21-.87A11.81,11.81,0,0,1,23.5,11.1a2.82,2.82,0,0,1,2.27-1.46,1.24,1.24,0,0,1,1.29,1.1l-1,4.76h4.55l1.61-7.66Z"/><polygon class="cls-2" points="33.39 14.11 33.07 15.5 39.39 15.5 39.69 14.11 33.39 14.11"/><path class="cls-2" d="M50.4,9.1l.25-1.26H48.13l.54-2.58a5.52,5.52,0,0,1,1.11-2.55A2.76,2.76,0,0,1,52,1.7,2.17,2.17,0,0,1,53.25,2a1.15,1.15,0,0,1,.49.94.55.55,0,0,0-.25,0,.9.9,0,0,0-.78.47,2,2,0,0,0-.29,1.07A1.51,1.51,0,0,0,53,5.78a2.25,2.25,0,0,0,1.35.39,2.6,2.6,0,0,0,1.78-.61,2.42,2.42,0,0,0,.71-1.94A2.86,2.86,0,0,0,55.16.79a9.16,9.16,0,0,0-4-.79,7.56,7.56,0,0,0-4.53,1.43q-2,1.44-2.84,5.34L41.94,15.5h4.59l1.35-6.4Z"/><path class="cls-2" d="M65.22,10.69a2.26,2.26,0,0,1,1.12-.26.33.33,0,0,1,.34.19,2.25,2.25,0,0,1,.19.59,2.56,2.56,0,0,0,.37,1,1,1,0,0,0,.93.34,2.07,2.07,0,0,0,1.66-.7,2.38,2.38,0,0,0,.6-1.6,2.5,2.5,0,0,0-.58-1.67,2,2,0,0,0-1.59-.7,3.6,3.6,0,0,0-1.87.51A12,12,0,0,0,64.45,9.8l.41-2H60.32L58.7,15.5h4.52L64,11.62A7.94,7.94,0,0,1,65.22,10.69Z"/><polygon class="cls-2" points="51.91 7.84 50.29 15.5 54.83 15.5 56.45 7.84 51.91 7.84"/><path class="cls-2" d="M80.54,13.83a5.6,5.6,0,0,0,1-3.25q0-3-3.46-3a6.63,6.63,0,0,0-4.88,1.91A11,11,0,0,0,70.43,14c-.17.51-.3,1-.42,1.51h4.57a16.76,16.76,0,0,1,1.57-4.27c.72-1.33,1.45-2,2.19-2,.52,0,.79.43.79,1.29A5.07,5.07,0,0,1,78.48,13a5.7,5.7,0,0,1-1.7,1.94,4.27,4.27,0,0,1-1.07.57h3.23A7,7,0,0,0,80.54,13.83Z"/><polygon class="cls-2" points="82.72 14.11 82.4 15.5 88.72 15.5 89.02 14.11 82.72 14.11"/><path class="cls-2" d="M127.76,1.13a2.38,2.38,0,0,0-1.76.74,2.45,2.45,0,0,0-.73,1.78,2.48,2.48,0,0,0,2.49,2.49,2.46,2.46,0,0,0,1.78-.72,2.39,2.39,0,0,0,.74-1.77,2.46,2.46,0,0,0-.74-1.78A2.44,2.44,0,0,0,127.76,1.13Z"/><polygon class="cls-2" points="133.05 7.84 131.43 15.5 135.97 15.5 137.59 7.84 133.05 7.84"/><polygon class="cls-2" points="124.64 7.84 123.02 15.5 127.56 15.5 129.18 7.84 124.64 7.84"/><path class="cls-2" d="M143,8a1.65,1.65,0,0,0-1.51-.77,2,2,0,0,0-1.47.48,1.6,1.6,0,0,0-.49,1.22,2.15,2.15,0,0,0,.3,1.11.94.94,0,0,0,.84.5,2.92,2.92,0,0,0,.59-.08c.24,0,.37-.13.42-.23a15.67,15.67,0,0,1-.76,4.34c-.1.33-.21.64-.32.95h2a20.62,20.62,0,0,0,.84-5.55A3.8,3.8,0,0,0,143,8Z"/><polygon class="cls-2" points="92.83 7.84 91.21 15.5 95.74 15.5 97.36 7.84 92.83 7.84"/><path class="cls-2" d="M120.11,11.28a3.5,3.5,0,0,0-1-2.68,3.58,3.58,0,0,0-2.55-.88,4.8,4.8,0,0,0-3.68,1.76l.34-1.64h-4.53l-1.63,7.66h4.54l.43-2a6.07,6.07,0,0,1,1-2.09,1.83,1.83,0,0,1,1.45-.81c.76,0,1.14.54,1.14,1.61a9.55,9.55,0,0,1-.22,1.73c-.11.52-.23,1.05-.35,1.58h4.29c.21-.84.38-1.57.5-2.19A11.19,11.19,0,0,0,120.11,11.28Z"/><polygon class="cls-2" points="100.61 7.84 98.99 15.5 103.52 15.5 105.15 7.84 100.61 7.84"/><path class="cls-2" d="M163.09,10.69a2.26,2.26,0,0,1,1.12-.26.34.34,0,0,1,.34.19,2.25,2.25,0,0,1,.19.59,2.57,2.57,0,0,0,.36,1,1.06,1.06,0,0,0,.93.34,2.09,2.09,0,0,0,1.67-.7,2.38,2.38,0,0,0,.6-1.6,2.5,2.5,0,0,0-.58-1.67,2,2,0,0,0-1.59-.7,3.64,3.64,0,0,0-1.88.51,12.4,12.4,0,0,0-1.93,1.45l.41-2h-4.54l-1.62,7.66h4.52l.82-3.88A7.46,7.46,0,0,1,163.09,10.69Z"/><path class="cls-2" d="M154.51,13.83a5.67,5.67,0,0,0,1-3.25q0-3-3.46-3a6.63,6.63,0,0,0-4.88,1.91A11,11,0,0,0,144.39,14c-.16.51-.3,1-.42,1.51h4.6a15.22,15.22,0,0,1,1.51-4.29q1.08-2,2.22-2c.52,0,.79.43.79,1.29a5,5,0,0,1-.65,2.46,5.82,5.82,0,0,1-1.7,1.92,4.81,4.81,0,0,1-1.14.6h3.31A7.45,7.45,0,0,0,154.51,13.83Z"/><path class="cls-2" d="M190.51,7.84l-.35,1.67V9.29a1.35,1.35,0,0,0-.63-1.16,3.32,3.32,0,0,0-1.92-.44,6.07,6.07,0,0,0-4.39,1.78,11.22,11.22,0,0,0-2.78,4.34c-.2.57-.36,1.13-.5,1.69h4.59q.09-.42.21-.87a11.81,11.81,0,0,1,1.58-3.53,2.82,2.82,0,0,1,2.27-1.46,1.17,1.17,0,0,1,1,.39,1.3,1.3,0,0,1,.32.81l-1,4.66h4.53L195,7.84Z"/><path class="cls-2" d="M172.43,7.5q-.83,2.61-1.74,4.86c-.42,1.06-.92,2.1-1.45,3.14h1.5a34.23,34.23,0,0,0,1.88-4.6c.06.79.19,2.33.39,4.6h4.61q-.37-4.63-.53-8.63Z"/><polygon class="cls-2" points="199.8 2.11 196.94 15.5 201.48 15.5 204.46 1.48 199.8 2.11"/></g><g id="edge"><path class="cls-3" d="M17.12,15.5c0,.1-.05.2-.07.3h4.59c0-.1.05-.2.07-.3Z"/><polygon class="cls-3" points="1.72 15.5 1.65 15.8 6.19 15.8 6.25 15.5 1.72 15.5"/><polygon class="cls-3" points="26.06 15.5 25.99 15.8 30.55 15.8 30.61 15.5 26.06 15.5"/><path class="cls-3" d="M9.71,15.5c0,.1-.05.2-.07.3h4.28c0-.1.05-.2.07-.3Z"/><polygon class="cls-3" points="33.07 15.5 33.01 15.8 39.33 15.8 39.39 15.5 33.07 15.5"/><polygon class="cls-3" points="41.94 15.5 41.88 15.8 46.47 15.8 46.53 15.5 41.94 15.5"/><polygon class="cls-3" points="50.29 15.5 50.23 15.8 54.76 15.8 54.83 15.5 50.29 15.5"/><polygon class="cls-3" points="58.7 15.5 58.64 15.8 63.16 15.8 63.22 15.5 58.7 15.5"/><path class="cls-3" d="M75.71,15.5a4,4,0,0,1-1.18.22c0-.08,0-.15,0-.22H70l-.06.3h8.59l.4-.3Z"/><polygon class="cls-3" points="82.4 15.5 82.33 15.8 88.66 15.8 88.72 15.5 82.4 15.5"/><path class="cls-3" d="M140.61,15.5c0,.1-.07.2-.1.3h2.05c0-.1.05-.2.08-.3Z"/><polygon class="cls-3" points="98.99 15.5 98.92 15.8 103.46 15.8 103.52 15.5 98.99 15.5"/><path class="cls-3" d="M115.1,15.5l-.06.3h4.28c0-.1.05-.2.07-.3Z"/><polygon class="cls-3" points="107.11 15.5 107.05 15.8 111.58 15.8 111.65 15.5 107.11 15.5"/><polygon class="cls-3" points="91.21 15.5 91.14 15.8 95.68 15.8 95.74 15.5 91.21 15.5"/><polygon class="cls-3" points="123.02 15.5 122.96 15.8 127.5 15.8 127.56 15.5 123.02 15.5"/><polygon class="cls-3" points="131.43 15.5 131.37 15.8 135.91 15.8 135.97 15.5 131.43 15.5"/><path class="cls-3" d="M149.6,15.5a4,4,0,0,1-1.08.22,1.42,1.42,0,0,1,0-.22H144l-.06.3h8.59l.41-.3Z"/><polygon class="cls-3" points="156.57 15.5 156.5 15.8 161.03 15.8 161.09 15.5 156.57 15.5"/><path class="cls-3" d="M177.62,15.5H173l0,.22v.08h4.61c0-.07,0-.13,0-.21Z"/><path class="cls-3" d="M169.24,15.5c-.05.1-.1.2-.16.3h1.51l.15-.3Z"/><path class="cls-3" d="M179.94,15.5c0,.1-.05.2-.07.3h4.59c0-.1,0-.2.07-.3Z"/><polygon class="cls-3" points="188.89 15.5 188.82 15.8 193.36 15.8 193.42 15.5 188.89 15.5"/><polygon class="cls-3" points="196.94 15.5 196.88 15.8 201.41 15.8 201.48 15.5 196.94 15.5"/></g></g></g></svg>
